<svg width="205" height="66" viewBox="0 0 205 66" fill="none" xmlns="http://www.w3.org/2000/svg">
<path d="M80 27.6173H82.6136V24.055L87.5377 22.6528V27.6173H92.1588V31.786H87.5377V39.0622C87.5377 40.3885 87.6892 41.336 87.9544 41.9044C88.2195 42.4729 88.7119 42.7382 89.4316 42.7382C89.924 42.7382 90.3786 42.7003 90.7574 42.5866C91.1361 42.4729 91.5149 42.3213 91.9694 42.1318L92.8406 45.9215C92.1588 46.2626 91.3634 46.5278 90.4543 46.7552C89.5453 46.9826 88.6362 47.0963 87.6892 47.0963C85.9468 47.0963 84.659 46.6415 83.8636 45.732C83.0302 44.8225 82.6515 43.3824 82.6515 41.336V31.786H80.0379V27.6173H80Z" fill="white"/>
<path d="M110.151 44.9362C109.393 45.5425 108.371 46.0731 107.045 46.452C105.757 46.8689 104.356 47.0963 102.916 47.0963C99.8481 47.0963 97.6133 46.1868 96.2118 44.4056C94.8103 42.6245 94.0906 40.1991 94.0906 37.0915C94.0906 33.7566 94.8861 31.2554 96.4769 29.5879C98.0678 27.9205 100.303 27.0867 103.181 27.0867C104.128 27.0867 105.075 27.2004 105.984 27.4657C106.893 27.731 107.689 28.1478 108.409 28.7163C109.128 29.2847 109.696 30.0806 110.113 31.0659C110.53 32.0512 110.757 33.2639 110.757 34.7419C110.757 35.2725 110.719 35.8409 110.681 36.4473C110.605 37.0536 110.53 37.6979 110.378 38.3421H99.0148C99.0905 39.9338 99.5072 41.1465 100.227 41.9423C100.984 42.7381 102.197 43.155 103.863 43.155C104.886 43.155 105.833 43.0034 106.666 42.7003C107.499 42.3971 108.105 42.056 108.522 41.7528L110.151 44.9362ZM103.106 31.028C101.818 31.028 100.871 31.407 100.227 32.1649C99.6208 32.9229 99.242 33.984 99.1284 35.2725H106.174C106.287 33.9082 106.06 32.8471 105.53 32.127C105.037 31.407 104.204 31.028 103.106 31.028Z" fill="white"/>
<path d="M114.128 28.7163C115.151 28.2615 116.325 27.8826 117.726 27.6173C119.128 27.352 120.567 27.2383 122.082 27.2383C123.408 27.2383 124.507 27.3899 125.378 27.6931C126.249 27.9962 126.969 28.451 127.461 29.0195C127.991 29.5879 128.332 30.308 128.56 31.1038C128.787 31.8996 128.9 32.8092 128.9 33.8324C128.9 34.9314 128.863 36.0683 128.787 37.1673C128.711 38.3042 128.673 39.4032 128.635 40.5022C128.635 41.6012 128.635 42.6623 128.711 43.6856C128.787 44.7088 128.976 45.6562 129.279 46.5657H125.264L124.469 43.9508H124.279C123.787 44.7467 123.067 45.3909 122.196 45.9594C121.287 46.5278 120.151 46.7931 118.749 46.7931C117.878 46.7931 117.083 46.6794 116.363 46.4141C115.643 46.1489 115.037 45.7699 114.545 45.2772C114.052 44.7846 113.636 44.2161 113.371 43.534C113.105 42.8518 112.954 42.0939 112.954 41.2602C112.954 40.0854 113.219 39.1 113.749 38.3042C114.28 37.5084 114.999 36.8641 115.984 36.3715C116.969 35.8788 118.105 35.5377 119.469 35.3482C120.832 35.1588 122.31 35.083 123.976 35.1588C124.166 33.7566 124.052 32.7334 123.673 32.127C123.295 31.5207 122.461 31.1796 121.136 31.1796C120.151 31.1796 119.09 31.2933 118.03 31.4828C116.931 31.6722 116.022 31.9375 115.34 32.2786L114.128 28.7163ZM120.378 42.8139C121.363 42.8139 122.158 42.5866 122.726 42.1318C123.295 41.677 123.749 41.2223 124.014 40.6917V38.2284C123.219 38.1526 122.499 38.1526 121.742 38.1905C121.022 38.2284 120.378 38.3421 119.848 38.5316C119.279 38.7211 118.863 38.9485 118.522 39.2895C118.181 39.6306 118.03 40.0475 118.03 40.5401C118.03 41.2602 118.219 41.7907 118.636 42.1697C119.052 42.6244 119.62 42.8139 120.378 42.8139Z" fill="white"/>
<path d="M138.105 40.199C138.105 41.0707 138.218 41.7149 138.446 42.1318C138.673 42.5487 139.052 42.7381 139.544 42.7381C139.847 42.7381 140.15 42.7002 140.453 42.6623C140.756 42.6244 141.097 42.5108 141.552 42.3213L142.082 46.1868C141.665 46.3762 141.059 46.6036 140.226 46.7931C139.393 46.9826 138.522 47.0963 137.65 47.0963C136.211 47.0963 135.112 46.7552 134.355 46.0731C133.597 45.3909 133.219 44.2919 133.219 42.7381V20H138.143V40.199H138.105Z" fill="white"/>
<path d="M155.226 27.6173V38.4179C155.226 39.4032 155.264 40.2748 155.415 40.9949C155.529 41.7528 155.718 42.3592 155.983 42.8518C156.248 43.3445 156.627 43.7235 157.12 43.9887C157.612 44.254 158.218 44.3677 158.938 44.3677C159.62 44.3677 160.226 44.254 160.756 44.0266C161.286 43.7993 161.741 43.534 162.195 43.155C162.65 42.776 162.991 42.3213 163.294 41.8286C163.597 41.336 163.862 40.8054 164.089 40.2748V27.6173H167.119V41.1844C167.119 42.0939 167.157 43.0413 167.195 44.0266C167.271 45.012 167.347 45.8457 167.498 46.6036H165.415L164.657 43.6098H164.468C163.9 44.5951 163.104 45.4288 162.12 46.0731C161.135 46.7173 159.885 47.0584 158.37 47.0584C157.347 47.0584 156.476 46.9447 155.68 46.6794C154.923 46.452 154.279 45.9973 153.748 45.4288C153.218 44.8225 152.839 43.9887 152.574 42.9655C152.309 41.9423 152.158 40.6538 152.158 39.1V27.6552H155.226V27.6173Z" fill="white"/>
<path d="M172.612 29.0195C173.559 28.451 174.695 27.9963 175.983 27.731C177.271 27.4657 178.596 27.3141 179.96 27.3141C181.286 27.3141 182.308 27.5036 183.142 27.8447C183.937 28.1857 184.543 28.6784 184.96 29.2469C185.377 29.8153 185.642 30.4596 185.793 31.1417C185.945 31.8238 186.021 32.506 186.021 33.1881C186.021 34.704 185.983 36.182 185.907 37.6221C185.831 39.0622 185.793 40.4264 185.793 41.7149C185.793 42.6624 185.831 43.534 185.907 44.3677C185.983 45.2015 186.134 45.9594 186.324 46.6794H184.051L183.255 44.0266H183.066C182.839 44.3677 182.536 44.7088 182.233 45.0878C181.892 45.4288 181.475 45.732 181.021 45.9973C180.528 46.2626 179.998 46.4899 179.354 46.6794C178.71 46.8689 177.99 46.9447 177.195 46.9447C176.4 46.9447 175.642 46.831 174.96 46.5657C174.278 46.3005 173.672 45.9594 173.142 45.5046C172.65 45.0499 172.233 44.4814 171.93 43.7993C171.627 43.155 171.513 42.3971 171.513 41.5634C171.513 40.4643 171.741 39.5169 172.195 38.7969C172.65 38.0389 173.294 37.4705 174.089 37.0157C174.922 36.561 175.907 36.2578 177.043 36.0683C178.18 35.8788 179.468 35.7651 180.869 35.7651C181.21 35.7651 181.589 35.7651 181.93 35.7651C182.271 35.7651 182.612 35.803 182.99 35.8409C183.066 35.083 183.104 34.4008 183.104 33.7945C183.104 32.3923 182.839 31.4449 182.271 30.8764C181.702 30.308 180.718 30.0427 179.24 30.0427C178.824 30.0427 178.331 30.0806 177.839 30.1564C177.346 30.2322 176.854 30.308 176.324 30.4217C175.793 30.5354 175.301 30.6869 174.847 30.8385C174.392 30.9901 173.975 31.1796 173.634 31.407L172.612 29.0195ZM177.99 44.2161C178.71 44.2161 179.316 44.1403 179.884 43.913C180.452 43.7235 180.907 43.4961 181.324 43.1929C181.74 42.8897 182.081 42.5866 182.308 42.2076C182.574 41.8665 182.763 41.5255 182.915 41.1844V38.0389C182.574 38.001 182.195 38.001 181.816 38.001C181.437 38.001 181.096 38.001 180.718 38.001C179.922 38.001 179.165 38.0389 178.445 38.1147C177.687 38.1905 177.043 38.38 176.475 38.6074C175.907 38.8348 175.453 39.1758 175.112 39.5927C174.771 40.0096 174.619 40.5401 174.619 41.1465C174.619 42.0181 174.922 42.7382 175.566 43.3445C176.172 43.9509 177.006 44.2161 177.99 44.2161Z" fill="white"/>
<path d="M63.7823 42.5885C63.2847 39.9408 61.9162 37.7604 60.05 35.8292C58.9615 34.7078 57.7174 33.711 56.4733 32.8077C55.5091 32.0912 55.3536 31.1879 55.5091 30.0977C55.6646 29.1009 56.069 28.4156 57.0642 28.0107C58.0906 27.6058 59.0237 26.9828 60.0811 26.6401C60.6721 26.4532 61.2319 26.1417 61.7295 25.7368C62.2894 25.3007 62.2894 25.1138 61.7295 24.6777C61.1697 24.2105 60.5788 23.8367 59.9256 23.5252C59.4902 23.3072 59.5213 23.1203 59.8012 22.7776C60.4855 21.9055 61.1075 21.0333 61.2941 19.9119C61.3563 19.4758 61.3874 19.0397 61.3563 18.5725C61.263 17.638 60.5477 17.2019 59.6768 17.5134C58.8371 17.7938 58.0595 18.261 57.2508 18.6348C56.4422 18.9774 55.6335 19.2578 54.7938 19.4447C54.4828 19.507 54.3273 19.4135 54.1717 19.1643C53.6119 18.261 53.0832 17.2954 52.4611 16.4232C50.7194 13.9935 48.449 12.4361 45.432 12.0623C45.4009 12.0623 45.3387 12 45.3076 12C44.5301 12 43.7525 12 42.9439 12C42.7573 12.1557 42.4774 12.1557 42.2596 12.218C38.5274 13.1837 35.4172 15.0215 33.551 18.5413C32.3692 20.7529 31.9648 23.1203 32.1826 25.6122C32.4314 28.5714 33.9865 30.8141 35.9459 32.8388C35.977 32.87 36.0703 32.9011 36.1325 32.9323C36.1947 33.2126 36.3502 33.3684 36.6302 33.4307C36.6924 33.493 36.7546 33.5553 36.8168 33.6176C37.1278 33.6176 37.4699 33.711 37.6254 33.4618C37.4699 33.711 37.1278 33.6487 36.8168 33.6176C37.2522 34.0225 37.7187 34.3963 38.1542 34.8012C38.2164 35.0816 38.2786 35.3619 38.3408 35.6111C38.4963 35.6734 38.714 35.7046 38.7451 35.8603C38.714 35.7046 38.4963 35.6734 38.3408 35.6111C38.2164 35.7357 38.1853 35.8914 38.1853 36.0472C37.6254 36.5144 36.9101 36.5144 36.2569 36.639C34.3597 37.0128 32.4314 37.3243 30.503 37.5735C29.881 37.667 29.4456 37.5112 29.0412 37.0128C27.5172 35.2685 26.1176 33.3995 24.687 31.5929C24.1582 30.9387 23.5362 30.378 22.6342 30.3157C21.8878 30.2534 21.2968 30.5649 20.7992 31.0633C19.6795 32.1224 19.1819 33.5241 18.7153 34.957C18.3732 36.0472 18.1866 37.1686 18.0933 38.3211C18.0933 38.4145 18.0933 38.4768 18 38.5391C18 39.6917 18 40.8753 18 42.0278C18.1866 42.8689 18.311 43.7099 18.5287 44.5509C19.4307 48.0085 21.3279 50.8431 24.2826 52.8366C25.8377 53.8957 27.6728 54.3318 29.5078 54.6121C33.0845 55.204 36.6924 55.4532 40.3313 55.7647C43.1927 56.0138 46.0541 56.045 48.9155 55.9515C51.7769 55.8581 54.6383 55.5155 57.4064 54.8925C60.641 54.176 62.5693 52.0579 63.5024 48.9118C63.7512 48.1019 63.7512 47.2298 64 46.4199C64 45.6412 64 44.8624 64 44.0525C63.8445 43.5853 63.8756 43.0869 63.7823 42.5885Z" fill="white"/>
</svg>
